<svg xmlns="http://www.w3.org/2000/svg" xmlns:xlink="http://www.w3.org/1999/xlink" width="1080" zoomAndPan="magnify" viewBox="0 0 810 809.999993" height="1080" preserveAspectRatio="xMidYMid meet" version="1.0"><path fill="#943005" d="M 455.183594 67.792969 C 455.183594 78.183594 454.304688 80.648438 444.972656 98.785156 C 439.335938 109.527344 427.363281 129.953125 418.382812 144.214844 C 391.089844 187.003906 382.636719 206.550781 378.410156 236.835938 C 376.648438 248.8125 376.648438 255.679688 378.410156 268.707031 L 380.523438 285.261719 L 371.015625 296.355469 C 359.21875 309.914062 352.527344 319.773438 345.128906 334.566406 C 338.792969 346.890625 323.648438 390.914062 325.585938 390.914062 C 326.289062 390.914062 331.394531 386.863281 337.03125 381.757812 L 347.242188 372.601562 L 346.011719 382.285156 C 342.136719 412.746094 333.683594 457.296875 329.28125 470.503906 C 314.84375 513.820312 294.242188 535.304688 266.949219 535.65625 C 252.507812 536.007812 243.527344 532.839844 234.546875 524.035156 C 209.71875 500.4375 212.535156 463.460938 240.007812 449.375 C 245.464844 446.554688 248.28125 443.914062 248.28125 441.625 C 248.28125 431.941406 261.136719 414.859375 276.984375 403.765625 L 287.550781 396.371094 L 282.445312 394.257812 C 273.640625 390.914062 254.796875 387.390625 245.113281 387.390625 C 224.863281 387.390625 194.753906 396.195312 177.144531 407.464844 C 163.761719 416.09375 141.925781 438.808594 133.296875 453.246094 C 98.257812 512.238281 107.414062 591.652344 156.011719 648.703125 C 192.816406 691.84375 240.886719 715.441406 297.9375 717.90625 C 348.300781 720.195312 390.03125 706.460938 425.953125 675.644531 C 437.222656 665.960938 456.066406 640.78125 463.109375 625.636719 C 474.554688 601.511719 480.71875 564.535156 477.195312 541.996094 C 476.140625 535.128906 475.609375 529.140625 476.140625 528.789062 C 477.546875 527.378906 487.234375 540.9375 494.628906 554.675781 C 498.679688 562.421875 502.550781 568.761719 502.90625 568.761719 C 504.136719 568.761719 502.199219 551.328125 498.855469 533.542969 C 494.804688 511.886719 494.804688 470.855469 499.03125 456.242188 C 502.726562 442.859375 511.355469 423.3125 515.40625 418.734375 C 516.992188 416.972656 517.871094 415.214844 517.519531 415.035156 C 517.167969 414.683594 511.707031 413.453125 505.546875 412.394531 C 483.007812 408.34375 463.8125 396.019531 448.667969 375.417969 C 443.386719 368.375 434.933594 350.0625 434.933594 345.835938 C 434.933594 345.660156 440.042969 348.828125 446.203125 353.054688 C 461.699219 363.265625 474.554688 368.023438 496.566406 371.015625 C 515.757812 373.480469 537.066406 372.601562 571.753906 367.667969 C 590.417969 365.027344 610.84375 367.667969 637.785156 376.121094 C 653.28125 381.050781 661.03125 382.460938 672.652344 382.636719 C 689.203125 382.988281 702.410156 379.292969 706.8125 372.953125 C 709.277344 369.429688 709.453125 369.429688 715.617188 374.359375 L 722.132812 379.46875 L 717.203125 383.515625 C 714.382812 385.628906 707.871094 389.679688 702.585938 392.320312 L 692.902344 397.074219 L 646.238281 397.253906 C 604.683594 397.253906 598.34375 397.78125 587.777344 400.949219 C 563.476562 408.34375 540.585938 426.660156 530.375 447.085938 C 516.816406 474.203125 516.109375 503.082031 528.261719 545.871094 C 536.890625 576.507812 540.410156 594.46875 540.585938 607.851562 C 540.761719 632.328125 530.375 662.085938 516.816406 676.703125 C 509.417969 684.625 511.53125 684.449219 530.023438 675.644531 C 544.8125 668.425781 567.527344 646.238281 576.332031 630.390625 C 587.074219 610.84375 592.003906 593.414062 592.355469 573.164062 C 592.355469 563.476562 591.828125 553.089844 591.125 550.273438 C 589.714844 545.339844 590.417969 545.871094 600.457031 555.554688 C 607.5 562.246094 611.023438 564.886719 610.492188 562.597656 C 609.964844 560.660156 609.085938 555.90625 608.378906 552.03125 C 607.851562 548.160156 603.449219 534.601562 598.695312 522.097656 C 588.835938 495.683594 586.015625 480.011719 588.128906 465.046875 C 590.242188 450.429688 594.996094 440.570312 604.683594 431.765625 C 617.535156 419.96875 634.96875 413.980469 657.683594 413.804688 C 686.210938 413.453125 706.988281 406.585938 721.78125 392.496094 C 736.570312 378.234375 749.953125 356.574219 750.128906 346.714844 C 750.128906 339.671875 743.613281 335.269531 727.414062 331.042969 C 707.695312 326.113281 683.394531 316.429688 668.777344 307.800781 C 655.042969 299.699219 648 290.367188 642.71875 273.285156 C 634.265625 245.816406 616.832031 226.273438 587.777344 211.304688 C 568.054688 201.265625 553.96875 197.394531 531.429688 195.632812 L 515.933594 194.574219 L 515.933594 202.675781 C 515.933594 219.933594 513.644531 248.457031 512.238281 247.050781 C 511.355469 246.167969 509.59375 240.886719 508.1875 235.074219 C 505.898438 225.917969 504.3125 212.359375 499.03125 154.957031 C 495.507812 116.921875 480.71875 77.125 464.695312 62.511719 C 460.820312 59.164062 457.296875 56.347656 456.417969 56.347656 C 455.714844 56.347656 455.183594 61.453125 455.183594 67.792969 Z M 587.074219 285.789062 C 590.242188 288.078125 590.066406 288.429688 585.664062 292.832031 C 580.558594 297.9375 579.855469 303.75 583.726562 309.207031 C 585.136719 311.320312 585.664062 313.433594 585.136719 314.140625 C 583.199219 316.074219 572.28125 315.195312 566.121094 312.730469 C 559.78125 310.089844 544.109375 296.53125 544.109375 293.714844 C 544.109375 292.832031 548.335938 290.191406 553.441406 287.902344 C 563.832031 282.972656 581.792969 281.914062 587.074219 285.789062 Z M 587.074219 285.789062 " fill-opacity="1" fill-rule="nonzero"/><path fill="#943005" d="M 565.238281 87.691406 C 528.964844 124.492188 517.695312 142.804688 516.285156 167.28125 L 515.582031 180.839844 L 531.078125 181.898438 C 550.273438 183.304688 568.585938 188.238281 587.953125 197.394531 L 602.746094 204.261719 L 601.335938 195.105469 C 600.632812 189.996094 599.753906 166.402344 599.574219 142.804688 C 599.222656 119.210938 598.519531 95.4375 597.816406 89.980469 C 596.757812 80.648438 590.949219 65.152344 588.484375 65.152344 C 587.777344 65.152344 577.390625 75.367188 565.238281 87.691406 Z M 565.238281 87.691406 " fill-opacity="1" fill-rule="nonzero"/></svg>